<svg width="37" height="38" viewBox="0 0 37 38" fill="none" xmlns="http://www.w3.org/2000/svg">
<g filter="url(#filter0_d)">
<path fill-rule="evenodd" clip-rule="evenodd" d="M29.9994 10.8165C29.9994 16.7902 25.1567 21.6329 19.183 21.6329C16.6094 21.6329 14.2456 20.734 12.3887 19.2331L1.52966 30.0922L0 28.5626L10.8497 17.7126C9.29883 15.8406 8.3667 13.4374 8.3667 10.8165C8.3667 4.8427 13.2094 0 19.183 0C25.1567 0 29.9994 4.8427 29.9994 10.8165ZM27.8363 10.8164C27.8363 15.5954 23.9622 19.4696 19.1832 19.4696C14.4043 19.4696 10.5302 15.5954 10.5302 10.8164C10.5302 6.03743 14.4043 2.16327 19.1832 2.16327C23.9622 2.16327 27.8363 6.03743 27.8363 10.8164Z" transform="translate(3.8948 3.8948) scale(0.9737)" fill="white"/>
</g>
<defs>
<filter id="filter0_d" x="0" y="0" width="37" height="37.0904" filterUnits="userSpaceOnUse" color-interpolation-filters="sRGB">
<feFlood flood-opacity="0" result="BackgroundImageFix"/>
<feColorMatrix in="SourceAlpha" type="matrix" values="0 0 0 0 0 0 0 0 0 0 0 0 0 0 0 0 0 0 255 0"/>
<feOffset/>
<feGaussianBlur stdDeviation="2"/>
<feColorMatrix type="matrix" values="0 0 0 0 0 0 0 0 0 0 0 0 0 0 0 0 0 0 0.4 0"/>
<feBlend mode="normal" in2="BackgroundImageFix" result="effect1_dropShadow"/>
<feBlend mode="normal" in="SourceGraphic" in2="effect1_dropShadow" result="shape"/>
</filter>
</defs>
</svg>
